#!OML:ASF H:\Terrain\Patient Classification 1\Animal1\Tuesday\Animal1.ASF
:FULLY-SPECIFIED
:DEGREES
1980
root 3.3325 16.7944 12.0645 -350.527 8.53318 720.447
lowerback -3.39345 -0.475251 -4.53079
upperback -6.48121 -0.593914 0.412632
thorax -4.76924 -0.0631376 2.969
lowerneck -8.50096 -2.39093 -5.46063
upperneck 21.4421 -5.5453 14.4012
head 8.59546 -1.68811 5.28657
rclavicle 3.40419e-015 -7.65321e-015
rhumerus -48.861 16.1621 -98.1287
rradius 34.3654
rwrist -20.0032
rhand -23.3299 28.1375
rfingers 7.12502
rthumb 3.12454 -1.81936
lclavicle 3.40419e-015 -7.65321e-015
lhumerus -42.9365 4.87849 80.2405
lradius 32.8888
lwrist -28.3381
lhand 0.27411 39.0938
lfingers 7.12502
lthumb 25.8529 67.3566
rfemur -26.5076 13.4082 22.1625
rtibia 34.6772
rfoot -3.64825 -18.303
rtoes 6.91101
lfemur -22.2488 -13.2146 -22.0274
ltibia 26.0392
lfoot -22.074 25.3488
ltoes 30.9036
1981
root 3.32125 16.8186 12.0968 -350.888 8.90197 720.567
lowerback -3.39702 -0.579858 -4.50899
upperback -6.28054 -0.731246 0.358773
thorax -4.54343 -0.143362 2.90019
lowerneck -8.46429 -2.45733 -5.35046
upperneck 21.4883 -5.62915 14.241
head 8.60678 -1.73354 5.20301
rclavicle 3.06874e-015 -6.4605e-015
rhumerus -48.1785 14.5168 -96.4914
rradius 33.5391
rwrist -15.4743
rhand -21.3255 29.8808
rfingers 7.12502
rthumb 5.06008 -0.0388013
lclavicle 3.06874e-015 -6.4605e-015
lhumerus -42.7833 4.88357 80.3093
lradius 32.8758
lwrist -29.011
lhand 0.580206 39.128
lfingers 7.12502
lthumb 26.146 67.3477
rfemur -25.8545 12.6194 21.8617
rtibia 34.6556
rfoot -3.20823 -18.961
rtoes 5.97915
lfemur -21.433 -13.2703 -22.2471
ltibia 25.6466
lfoot -21.7078 25.3257
ltoes 29.9972
1982
root 3.29716 16.8351 12.0775 -350.738 9.00476 720.648
lowerback -3.09077 -0.629203 -4.55844
upperback -6.4541 -0.816154 0.372639
thorax -4.8933 -0.171415 2.94764
lowerneck -8.22485 -2.49627 -5.31438
upperneck 21.3884 -5.64378 14.0661
head 8.5228 -1.76633 5.1301
rclavicle -1.39895e-014 6.95746e-015
rhumerus -47.7998 13.0083 -95.0017
rradius 33.1294
rwrist -11.7327
rhand -19.6748 30.9296
rfingers 7.12502
rthumb 6.65378 1.05409
lclavicle -1.39895e-014 6.95746e-015
lhumerus -42.8282 5.17068 80.2204
lradius 32.8296
lwrist -29.763
lhand 0.0609294 39.033
lfingers 7.12502
lthumb 25.6487 67.3254
rfemur -26.2263 12.6011 21.2314
rtibia 34.6554
rfoot -2.32711 -19.1551
rtoes 4.74345
lfemur -21.4636 -13.2689 -22.1719
ltibia 25.1459
lfoot -21.178 25.2263
ltoes 30.2018
1983
root 3.25975 16.8404 12.0829 -350.596 8.76154 720.294
lowerback -3.34297 -0.559598 -4.36599
upperback -6.48059 -0.704084 0.560715
thorax -4.78644 -0.121534 3.03188
lowerneck -8.13382 -2.5543 -5.61034
upperneck 21.2744 -5.69085 14.1838
head 8.48247 -1.8091 5.21579
rclavicle -8.51047e-016 1.43125e-014
rhumerus -47.619 12.1163 -94.063
rradius 33.1394
rwrist -10.578
rhand -19.2115 31.6844
rfingers 7.12502
rthumb 7.101 1.82351
lclavicle -8.51047e-016 1.43125e-014
lhumerus -42.6398 5.42113 80.2515
lradius 32.673
lwrist -30.36
lhand -0.615468 38.7598
lfingers 7.12502
lthumb 25.0007 67.1439
rfemur -26.611 13.2028 21.0848
rtibia 34.6317
rfoot -0.899652 -19.5879
rtoes 3.6773
lfemur -21.4502 -13.1906 -21.5469
ltibia 24.5217
lfoot -20.9875 25.3488
ltoes 31.1595
1984
root 3.23282 16.8598 12.0962 -350.566 8.66954 720.326
lowerback -3.63936 -0.521049 -4.36965
upperback -6.3624 -0.636087 0.555026
thorax -4.49951 -0.0964792 3.02393
lowerneck -8.26515 -2.57683 -5.68109
upperneck 21.3283 -5.73286 14.2663
head 8.53481 -1.82025 5.2548
rclavicle 5.2181e-016 -1.12313e-014
rhumerus -47.4762 11.5731 -93.5913
rradius 33.1987
rwrist -10.831
rhand -19.0908 32.1653
rfingers 7.12502
rthumb 7.21748 2.30843
lclavicle 5.2181e-016 -1.12313e-014
lhumerus -42.2161 5.53279 80.342
lradius 32.5603
lwrist -30.4603
lhand -0.0749694 38.9498
lfingers 7.12502
lthumb 25.5186 67.2608
rfemur -26.7792 13.8393 20.3886
rtibia 34.6353
rfoot 0.611947 -20.2817
rtoes 2.42892
lfemur -21.1856 -13.4701 -21.4249
ltibia 24.0883
lfoot -21.0485 25.4937
ltoes 32.0703
1985
root 3.20693 16.8801 12.097 -350.428 8.69952 720.44
lowerback -3.73828 -0.512897 -4.41842
upperback -6.36609 -0.622177 0.486393
thorax -4.44924 -0.0901419 2.97899
lowerneck -8.43314 -2.5709 -5.49278
upperneck 21.5586 -5.77405 14.2358
head 8.64464 -1.81299 5.21403
rclavicle -6.36732e-015 1.15295e-014
rhumerus -47.4256 11.1645 -93.3662
rradius 33.1626
rwrist -10.7327
rhand -19.3564 31.8179
rfingers 7.12502
rthumb 6.96113 1.95236
lclavicle -6.36732e-015 1.15295e-014
lhumerus -42.0422 5.59425 80.3845
lradius 32.7503
lwrist -30.4768
lhand 0.71341 39.2694
lfingers 7.12502
lthumb 26.2735 67.4702
rfemur -26.9158 13.7127 19.7918
rtibia 34.4847
rfoot 1.48548 -20.8829
rtoes 1.1558
lfemur -21.1837 -13.911 -21.3406
ltibia 23.8586
lfoot -21.1694 25.6509
ltoes 32.4816
1986
root 3.17432 16.8765 12.0863 -350.19 8.7437 720.414
lowerback -3.73345 -0.496382 -4.39102
upperback -6.43469 -0.601288 0.496357
thorax -4.52619 -0.0775092 2.9744
lowerneck -8.62589 -2.6574 -5.58944
upperneck 21.7287 -5.9255 14.3588
head 8.76361 -1.86773 5.26487
rclavicle 1.83627e-014 2.28602e-014
rhumerus -47.3723 10.8681 -93.1279
rradius 33.2185
rwrist -10.5074
rhand -19.9377 31.3044
rfingers 7.12502
rthumb 6.4 1.42104
lclavicle 1.83627e-014 2.28602e-014
lhumerus -41.9345 5.59164 80.4858
lradius 33.0473
lwrist -30.6759
lhand 0.259516 38.8988
lfingers 7.12502
lthumb 25.8389 67.1636
rfemur -26.8452 12.1574 20.008
rtibia 34.1672
rfoot 1.516 -21.0578
rtoes -1.09111
lfemur -21.3804 -14.2951 -21.0228
ltibia 23.4869
lfoot -21.0703 26.0126
ltoes 32.5825
1987
root 3.14428 16.8695 12.0875 -350.12 8.74724 720.344
lowerback -3.82979 -0.492149 -4.32586
upperback -6.35124 -0.587602 0.566958
thorax -4.38418 -0.0766547 3.00993
lowerneck -8.82713 -2.73272 -5.83018
upperneck 21.7378 -6.02121 14.5058
head 8.82766 -1.91093 5.34979
rclavicle -1.05853e-014 2.68359e-015
rhumerus -47.1686 10.6379 -92.6657
rradius 33.3177
rwrist -10.1087
rhand -19.705 30.9183
rfingers 7.12502
rthumb 6.62457 1.0419
lclavicle -1.05853e-014 2.68359e-015
lhumerus -41.5345 5.63247 80.6681
lradius 33.1574
lwrist -30.783
lhand -0.253761 38.7048
lfingers 7.12502
lthumb 25.3473 67.0403
rfemur -26.5915 11.7734 19.8094
rtibia 33.6136
rfoot 2.65053 -21.2314
rtoes -3.99244
lfemur -21.3003 -14.4454 -20.7664
ltibia 23.0685
lfoot -20.8759 26.2663
ltoes 33.0313
1988
root 3.12323 16.8988 12.1128 -350.321 8.71187 720.016
lowerback -4.19346 -0.423623 -3.89541
upperback -6.06389 -0.476817 0.669011
thorax -3.88423 -0.0536342 2.87027
lowerneck -8.79709 -2.7748 -5.85246
upperneck 21.4386 -6.03119 14.4667
head 8.72054 -1.93176 5.32751
rclavicle 3.00351e-014 1.38652e-014
rhumerus -46.8025 10.4124 -92.1943
rradius 33.119
rwrist -9.65336
rhand -19.4661 30.7844
rfingers 7.12502
rthumb 6.85518 0.915433
lclavicle 3.00351e-014 1.38652e-014
lhumerus -40.8729 5.71013 80.893
lradius 33.1052
lwrist -30.4124
lhand 0.208225 39.3476
lfingers 7.12502
lthumb 25.7898 67.6195
rfemur -26.4067 14.1424 18.735
rtibia 33.0324
rfoot 5.19449 -22.2982
rtoes -5.62999
lfemur -20.5825 -14.8702 -20.3055
ltibia 22.298
lfoot -21.0615 26.6329
ltoes 33.9935
1989
root 3.09722 16.9499 12.1435 -350.615 8.61438 719.231
lowerback -3.92385 -0.245811 -3.11187
upperback -6.33374 -0.253676 0.91149
thorax -4.33392 0.0434901 2.68578
lowerneck -8.19744 -2.80986 -5.79781
upperneck 21.5277 -6.06668 14.2613
head 8.63176 -1.98283 5.2468
rclavicle -1.15388e-014 -7.25564e-015
rhumerus -47.4555 10.328 -92.1078
rradius 32.7813
rwrist -10.0371
rhand -20.0951 31.4012
rfingers 7.12502
rthumb 6.24801 1.51335
lclavicle -1.15388e-014 -7.25564e-015
lhumerus -41.2983 5.6693 81.1083
lradius 33.268
lwrist -29.6016
lhand 0.5031 39.6595
lfingers 7.12502
lthumb 26.0722 67.8902
rfemur -26.3796 17.0337 18.0143
rtibia 32.4559
rfoot 6.46073 -24.294
rtoes -5.40305
lfemur -19.624 -15.412 -19.293
ltibia 21.1213
lfoot -21.3517 27.1389
ltoes 34.8406
1990
root 3.07176 16.9929 12.1591 -350.313 8.75374 719.853
lowerback -4.1404 -0.276337 -3.62799
upperback -6.49884 -0.288459 0.725176
thorax -4.38609 0.048511 2.78179
lowerneck -8.11538 -2.87596 -5.78983
upperneck 21.7945 -6.18137 14.1989
head 8.71806 -2.03619 5.22126
rclavicle 3.31287e-014 2.01269e-014
rhumerus -47.7025 10.2294 -91.9681
rradius 32.5285
rwrist -10.3884
rhand -20.0463 31.8436
rfingers 7.12502
rthumb 6.29516 1.95717
lclavicle 3.31287e-014 2.01269e-014
lhumerus -41.5078 5.58572 81.2711
lradius 33.7102
lwrist -28.9044
lhand 0.604249 39.6298
lfingers 7.12502
lthumb 26.169 67.8461
rfemur -26.7838 18.1601 16.0525
rtibia 32.1119
rfoot 5.85989 -26.294
rtoes -4.21204
lfemur -18.9463 -15.8598 -19.7658
ltibia 19.5181
lfoot -20.6109 27.5513
ltoes 34.2569
1991
root 3.04259 17.0205 12.1657 -350.159 8.78153 720.173
lowerback -4.24795 -0.341565 -3.86638
upperback -6.48661 -0.371451 0.627073
thorax -4.30743 0.0134289 2.81277
lowerneck -8.26717 -2.862 -5.77589
upperneck 21.9086 -6.18676 14.2495
head 8.7881 -2.02354 5.23961
rclavicle -1.28713e-014 6.26172e-015
rhumerus -47.5985 10.1921 -91.8209
rradius 32.3214
rwrist -10.0023
rhand -19.8414 31.8063
rfingers 7.12502
rthumb 6.49289 1.92578
lclavicle -1.28713e-014 6.26172e-015
lhumerus -41.3922 5.70716 81.2443
lradius 34.0078
lwrist -28.5653
lhand 0.729922 39.4943
lfingers 7.12502
lthumb 26.2893 67.6928
rfemur -27.0946 19.1269 14.6438
rtibia 31.9508
rfoot 4.44772 -28.3724
rtoes -1.89258
lfemur -18.1978 -16.1559 -19.9285
ltibia 17.9112
lfoot -19.941 27.9226
ltoes 33.8957
1992
root 3.01278 17.0367 12.1633 -350.081 8.83858 720.335
lowerback -4.15416 -0.371877 -3.95043
upperback -6.46802 -0.415675 0.598269
thorax -4.33757 -0.00537759 2.83029
lowerneck -8.2543 -2.83833 -5.66133
upperneck 21.6901 -6.12896 14.1739
head 8.69899 -2.00136 5.19044
rclavicle 1.83317e-014 -2.28602e-015
rhumerus -47.4839 10.2101 -91.7719
rradius 32.0507
rwrist -10.0848
rhand -20.4828 32.0245
rfingers 7.12502
rthumb 5.87367 2.12589
lclavicle 1.83317e-014 -2.28602e-015
lhumerus -41.042 5.88127 81.3045
lradius 34.0398
lwrist -28.3768
lhand 0.650179 39.1632
lfingers 7.12502
lthumb 26.213 67.373
rfemur -27.2956 20.0483 13.5767
rtibia 31.8815
rfoot 2.83748 -30.5245
rtoes 1.17677
lfemur -17.5201 -16.4748 -19.9047
ltibia 16.4432
lfoot -19.3224 28.1831
ltoes 34.8226
1993
root 2.96121 17.0477 12.1651 -349.938 8.71781 720.232
lowerback -4.12099 -0.251286 -4.06855
upperback -6.57978 -0.253431 0.678956
thorax -4.48817 0.0888143 2.98168
lowerneck -7.99381 -2.90816 -5.50689
upperneck 21.397 -6.17852 13.9797
head 8.54534 -2.04891 5.08017
rclavicle 1.462e-014 7.42958e-015
rhumerus -47.6019 10.1112 -91.6618
rradius 31.8118
rwrist -10.4749
rhand -20.9678 32.1414
rfingers 7.12502
rthumb 5.40539 2.23033
lclavicle 1.462e-014 7.42958e-015
lhumerus -40.9405 5.55856 81.6598
lradius 34.3968
lwrist -27.8847
lhand 0.678971 39.2735
lfingers 7.12502
lthumb 26.2405 67.4792
rfemur -27.6148 21.1004 12.9173
rtibia 31.7662
rfoot 1.34154 -32.4542
rtoes 5.30976
lfemur -17.169 -16.881 -19.4293
ltibia 15.2711
lfoot -19.1533 28.595
ltoes 36.2737
